<svg width="42" height="41" viewBox="0 0 42 41" fill="none" xmlns="http://www.w3.org/2000/svg">
<path d="M29.9176 33.1653C30.5113 33.0438 30.864 32.4235 30.5901 31.8829C29.6994 30.1249 28.1908 28.5799 26.2182 27.4238C23.8605 26.042 20.9718 25.293 18 25.293C15.0282 25.293 12.1394 26.042 9.78168 27.4238C7.80909 28.5799 6.30048 30.1249 5.40981 31.8829C5.13594 32.4235 5.48863 33.0438 6.08231 33.1653L9.97976 33.9629C15.2717 35.046 20.7282 35.046 26.0202 33.9629L29.9176 33.1653Z" fill="black"/>
<ellipse cx="18" cy="16.4551" rx="7.5" ry="7.36527" fill="black"/>
<path d="M36 2L35.2972 1.28863L36 0.594256L36.7028 1.28863L36 2ZM37 16.8198C37 17.3721 36.5523 17.8198 36 17.8198C35.4477 17.8198 35 17.3721 35 16.8198L37 16.8198ZM30.2972 6.22856L35.2972 1.28863L36.7028 2.71137L31.7028 7.65129L30.2972 6.22856ZM36.7028 1.28863L41.7028 6.22856L40.2972 7.65129L35.2972 2.71137L36.7028 1.28863ZM37 2L37 16.8198L35 16.8198L35 2L37 2Z" fill="black"/>
</svg>
